<svg width="325" height="325" viewBox="0 0 325 325" fill="none" xmlns="http://www.w3.org/2000/svg">
<path d="M75.4948 28.0854C77.2189 28.9144 78.6738 30.2134 79.692 31.8329C80.7102 33.4524 81.2502 35.3266 81.2501 37.2396C81.2501 48.4792 85.4751 54.9521 90.7698 62.8333L91.1626 63.4021C95.6584 70.0917 101.563 78.8531 101.563 91.4063C101.563 104.217 95.1032 115.51 85.2584 122.214C87.8448 124.38 90.1334 127.048 92.1105 130.244C98.5563 140.671 101.563 156.609 101.563 179.495C101.563 202.678 98.448 230.52 93.3698 252.755C90.8511 263.805 87.723 274.002 83.999 281.653C82.2409 285.46 79.912 288.976 77.0928 292.08C74.3032 294.938 70.0105 297.984 64.323 297.984C58.6355 297.984 54.3428 294.938 51.5667 292.08C48.7394 288.983 46.4096 285.465 44.6605 281.653C40.923 273.989 37.7948 263.805 35.2761 252.742C29.9941 228.675 27.2482 204.12 27.0834 179.481C27.0834 156.596 30.0896 140.671 36.5355 130.244C38.3744 127.217 40.6879 124.506 43.3876 122.214C38.3605 118.801 34.2461 114.208 31.4039 108.838C28.5617 103.467 27.0783 97.4824 27.0834 91.4063C27.0834 86.4229 27.0834 77.851 32.2698 66.7875C37.348 55.9542 47.0032 43.5094 64.7428 29.3042C66.2379 28.1082 68.0406 27.3592 69.943 27.1436C71.8454 26.928 73.77 27.2545 75.4948 28.0854ZM47.3959 91.3927C47.3959 95.8821 49.1793 100.201 52.3537 103.376C55.5282 106.55 59.8336 108.333 64.323 108.333C68.8123 108.333 73.1178 106.55 76.2922 103.376C79.4667 100.201 81.2501 95.8956 81.2501 91.4063C81.2501 85.4615 78.7448 81.3448 73.9105 74.1542L73.748 73.9104C70.6469 69.3063 66.9771 63.849 64.3771 56.8479C57.024 64.3229 52.9615 70.525 50.673 75.4C47.3959 82.3875 47.3959 87.3708 47.3959 91.3927ZM53.8146 140.915C50.4563 146.358 47.3959 157.517 47.3959 179.495C47.3959 201.175 50.348 227.5 55.074 248.232C57.4573 258.659 60.1657 267.123 62.9146 272.756C63.4157 273.799 63.8896 274.666 64.323 275.397C64.7563 274.666 65.2303 273.799 65.7313 272.756C68.4803 267.123 71.1886 258.646 73.5719 248.232C78.3115 227.514 81.2501 201.189 81.2501 179.495C81.2501 157.517 78.1896 146.358 74.8313 140.915C73.8185 139.082 72.2876 137.589 70.4303 136.622C68.5071 135.784 66.4187 135.395 64.323 135.484C61.6146 135.484 59.6782 135.904 58.2157 136.622C56.3584 137.589 54.8275 139.082 53.8146 140.915ZM135.417 202.015C128.242 200.811 121.264 198.643 114.671 195.569C115.067 187.888 115.18 180.196 115.009 172.507C121.117 176.61 128.009 179.63 135.417 181.309V142.188C135.417 136.8 137.557 131.634 141.366 127.824C145.175 124.015 150.342 121.875 155.729 121.875H209.896C209.895 110.509 206.716 99.3705 200.718 89.7167C194.719 80.063 186.14 72.2793 175.95 67.2449C165.761 62.2106 154.366 60.1263 143.054 61.2276C131.742 62.3289 120.963 66.5719 111.935 73.4771C109.227 65.9885 105.368 60.2604 102.687 56.2792L102.145 55.4667C114.311 46.89 128.6 41.8206 143.452 40.8117C158.303 39.8029 173.147 42.8934 186.361 49.746C199.576 56.5986 210.654 66.9498 218.387 79.6697C226.119 92.3896 230.208 106.989 230.208 121.875H277.604C282.991 121.875 288.158 124.015 291.967 127.824C295.777 131.634 297.917 136.8 297.917 142.188V264.063C297.917 269.45 295.777 274.616 291.967 278.426C288.158 282.235 282.991 284.375 277.604 284.375H155.729C150.342 284.375 145.175 282.235 141.366 278.426C137.557 274.616 135.417 269.45 135.417 264.063V202.001V202.015ZM155.729 202.868V264.076H277.604V142.201H227.635C223.416 158.519 214.23 173.123 201.348 183.991C188.466 194.86 172.525 201.456 155.729 202.868ZM206.429 142.201H155.729V182.46C167.107 181.185 177.896 176.732 186.862 169.613C195.828 162.493 202.609 152.994 206.429 142.201Z" fill="white"/>
</svg>
