<svg width="270" height="270" viewBox="0 0 270 270" fill="none" xmlns="http://www.w3.org/2000/svg">
<path d="M56.25 56.25H202.5C211.451 56.25 220.036 59.8058 226.365 66.1351C232.694 72.4645 236.25 81.0489 236.25 90V191.25C236.25 200.201 232.694 208.786 226.365 215.115C220.036 221.444 211.451 225 202.5 225H56.25C47.2989 225 38.7145 221.444 32.3851 215.115C26.0558 208.786 22.5 200.201 22.5 191.25V90C22.5 81.0489 26.0558 72.4645 32.3851 66.1351C38.7145 59.8058 47.2989 56.25 56.25 56.25ZM56.25 67.5C50.625 67.5 45.675 69.4125 41.85 72.7875L129.375 129.375L216.9 72.7875C213.075 69.4125 208.125 67.5 202.5 67.5H56.25ZM129.375 142.988L35.2125 81.9C34.3125 84.375 33.75 87.1875 33.75 90V191.25C33.75 197.217 36.1205 202.94 40.3401 207.16C44.5597 211.379 50.2826 213.75 56.25 213.75H202.5C208.467 213.75 214.19 211.379 218.41 207.16C222.629 202.94 225 197.217 225 191.25V90C225 87.1875 224.438 84.375 223.538 81.9L129.375 142.988Z" fill="white"/>
</svg>
