<svg width="270" height="270" viewBox="0 0 270 270" fill="none" xmlns="http://www.w3.org/2000/svg">
<path d="M202.5 233.438H67.5C59.2949 233.438 51.4258 230.178 45.6239 224.376C39.822 218.574 36.5625 210.705 36.5625 202.5V67.5C36.5625 59.2949 39.822 51.4258 45.6239 45.6239C51.4258 39.822 59.2949 36.5625 67.5 36.5625H135C137.238 36.5625 139.384 37.4514 140.966 39.0338C142.549 40.6161 143.438 42.7622 143.438 45C143.438 47.2378 142.549 49.3839 140.966 50.9662C139.384 52.5486 137.238 53.4375 135 53.4375H67.5C63.7704 53.4375 60.1935 54.9191 57.5563 57.5563C54.9191 60.1935 53.4375 63.7704 53.4375 67.5V202.5C53.4375 206.23 54.9191 209.806 57.5563 212.444C60.1935 215.081 63.7704 216.562 67.5 216.562H202.5C206.23 216.562 209.806 215.081 212.444 212.444C215.081 209.806 216.562 206.23 216.562 202.5V135C216.562 132.762 217.451 130.616 219.034 129.034C220.616 127.451 222.762 126.562 225 126.562C227.238 126.562 229.384 127.451 230.966 129.034C232.549 130.616 233.438 132.762 233.438 135V202.5C233.438 210.705 230.178 218.574 224.376 224.376C218.574 230.178 210.705 233.438 202.5 233.438ZM225 98.4375C222.771 98.4084 220.642 97.5101 219.066 95.934C217.49 94.3579 216.592 92.2287 216.562 90V53.4375H180C177.762 53.4375 175.616 52.5486 174.034 50.9662C172.451 49.3839 171.562 47.2378 171.562 45C171.562 42.7622 172.451 40.6161 174.034 39.0338C175.616 37.4514 177.762 36.5625 180 36.5625H225C227.229 36.5916 229.358 37.4899 230.934 39.066C232.51 40.6421 233.408 42.7713 233.438 45V90C233.408 92.2287 232.51 94.3579 230.934 95.934C229.358 97.5101 227.229 98.4084 225 98.4375Z" fill="white"/>
<path d="M151.875 126.562C149.704 126.397 147.685 125.387 146.25 123.75C144.866 122.203 144.101 120.2 144.101 118.125C144.101 116.05 144.866 114.047 146.25 112.5L219.375 39.375C220.147 38.546 221.079 37.8811 222.114 37.42C223.149 36.9588 224.266 36.7108 225.399 36.6908C226.532 36.6709 227.657 36.8793 228.708 37.3036C229.759 37.728 230.713 38.3596 231.514 39.1608C232.315 39.962 232.947 40.9164 233.371 41.967C233.796 43.0176 234.004 44.143 233.984 45.2759C233.964 46.4088 233.716 47.5261 233.255 48.5611C232.794 49.596 232.129 50.5275 231.3 51.3L157.5 123.75C156.065 125.387 154.046 126.397 151.875 126.562Z" fill="white"/>
</svg>
