<svg width="325" height="325" viewBox="0 0 325 325" fill="none" xmlns="http://www.w3.org/2000/svg">
<g clip-path="url(#clip0_2_12)">
<mask id="mask0_2_12" style="mask-type:luminance" maskUnits="userSpaceOnUse" x="0" y="0" width="325" height="325">
<path d="M0 0H325V325H0V0Z" fill="white"/>
</mask>
<g mask="url(#mask0_2_12)">
<path d="M161.335 0C78.8125 0 83.9583 35.9667 83.9583 35.9667L84.0531 73.2333H162.784V84.4188H52.8125C52.8125 84.4188 0 78.3927 0 162.08C0 245.768 46.0823 242.789 46.0823 242.789H73.5719V203.965C73.5719 203.965 72.0958 157.652 118.936 157.652H197.018C197.018 157.652 240.893 158.356 240.893 115.023V43.3604C240.893 43.3604 247.555 0 161.335 0ZM117.921 25.0521C125.748 25.0521 132.085 31.4167 132.085 39.2979C132.085 47.1656 125.748 53.5302 117.921 53.5302C110.08 53.5302 103.756 47.1656 103.756 39.2979C103.756 31.4167 110.08 25.0521 117.921 25.0521Z" fill="white"/>
<path d="M163.678 325C246.174 325 241.028 289.033 241.028 289.033L240.933 251.767H162.202V240.581H272.201C272.201 240.581 325.014 246.607 325.014 162.92C325.014 79.2323 278.918 82.2115 278.918 82.2115H251.428V121.035C251.428 121.035 252.904 167.348 206.064 167.348H127.996C127.996 167.348 84.1208 166.644 84.1208 209.977V281.64C84.1208 281.64 77.4583 325 163.678 325ZM207.093 299.948C199.252 299.948 192.928 293.583 192.928 285.702C192.928 277.834 199.252 271.47 207.093 271.47C214.92 271.47 221.257 277.834 221.257 285.702C221.257 293.583 214.92 299.948 207.093 299.948Z" fill="white"/>
</g>
</g>
<defs>
<clipPath id="clip0_2_12">
<rect width="325" height="325" fill="white"/>
</clipPath>
</defs>
</svg>
