<svg width="325" height="325" viewBox="0 0 325 325" fill="none" xmlns="http://www.w3.org/2000/svg">
<path d="M276.751 148.958H48.249C42.8618 148.958 37.6953 146.818 33.8859 143.009C30.0766 139.2 27.9365 134.033 27.9365 128.646V75.3594C27.9365 69.9722 30.0766 64.8056 33.8859 60.9963C37.6953 57.1869 42.8618 55.0469 48.249 55.0469H276.751C282.138 55.0469 287.305 57.1869 291.114 60.9963C294.924 64.8056 297.064 69.9722 297.064 75.3594V128.578C297.073 131.251 296.554 133.9 295.537 136.372C294.52 138.844 293.025 141.092 291.138 142.985C289.251 144.878 287.009 146.381 284.54 147.406C282.071 148.431 279.424 148.958 276.751 148.958ZM48.249 68.5885C46.4533 68.5885 44.7311 69.3019 43.4613 70.5717C42.1915 71.8415 41.4782 73.5636 41.4782 75.3594V128.578C41.4782 130.374 42.1915 132.096 43.4613 133.366C44.7311 134.636 46.4533 135.349 48.249 135.349H276.751C278.547 135.349 280.269 134.636 281.539 133.366C282.809 132.096 283.522 130.374 283.522 128.578V75.3594C283.522 73.5636 282.809 71.8415 281.539 70.5717C280.269 69.3019 278.547 68.5885 276.751 68.5885H48.249ZM276.751 269.953H48.249C42.8618 269.953 37.6953 267.813 33.8859 264.004C30.0766 260.194 27.9365 255.028 27.9365 249.641V196.422C27.9365 191.035 30.0766 185.868 33.8859 182.059C37.6953 178.249 42.8618 176.109 48.249 176.109H276.751C282.138 176.109 287.305 178.249 291.114 182.059C294.924 185.868 297.064 191.035 297.064 196.422V249.641C297.064 255.028 294.924 260.194 291.114 264.004C287.305 267.813 282.138 269.953 276.751 269.953ZM48.249 189.651C46.4533 189.651 44.7311 190.364 43.4613 191.634C42.1915 192.904 41.4782 194.626 41.4782 196.422V249.641C41.4782 251.436 42.1915 253.159 43.4613 254.428C44.7311 255.698 46.4533 256.411 48.249 256.411H276.751C278.547 256.411 280.269 255.698 281.539 254.428C282.809 253.159 283.522 251.436 283.522 249.641V196.422C283.522 194.626 282.809 192.904 281.539 191.634C280.269 190.364 278.547 189.651 276.751 189.651H48.249Z" fill="white"/>
<path d="M75.3324 108.74C79.0718 108.74 82.1032 105.708 82.1032 101.969C82.1032 98.2293 79.0718 95.1979 75.3324 95.1979C71.5929 95.1979 68.5615 98.2293 68.5615 101.969C68.5615 105.708 71.5929 108.74 75.3324 108.74Z" fill="white"/>
<path d="M102.416 108.74C106.155 108.74 109.186 105.708 109.186 101.969C109.186 98.2293 106.155 95.1979 102.416 95.1979C98.6762 95.1979 95.6448 98.2293 95.6448 101.969C95.6448 105.708 98.6762 108.74 102.416 108.74Z" fill="white"/>
<path d="M182.162 108.74C180.367 108.74 178.645 108.026 177.375 106.756C176.105 105.487 175.392 103.765 175.392 101.969C175.392 100.173 176.105 98.4508 177.375 97.1811C178.645 95.9113 180.367 95.1979 182.162 95.1979H249.871C251.667 95.1979 253.389 95.9113 254.658 97.1811C255.928 98.4508 256.642 100.173 256.642 101.969C256.642 103.765 255.928 105.487 254.658 106.756C253.389 108.026 251.667 108.74 249.871 108.74H182.162Z" fill="white"/>
<path d="M75.3324 229.802C79.0718 229.802 82.1032 226.771 82.1032 223.031C82.1032 219.292 79.0718 216.26 75.3324 216.26C71.5929 216.26 68.5615 219.292 68.5615 223.031C68.5615 226.771 71.5929 229.802 75.3324 229.802Z" fill="white"/>
<path d="M102.416 229.802C106.155 229.802 109.186 226.771 109.186 223.031C109.186 219.292 106.155 216.26 102.416 216.26C98.6762 216.26 95.6448 219.292 95.6448 223.031C95.6448 226.771 98.6762 229.802 102.416 229.802Z" fill="white"/>
<path d="M182.162 229.802C180.367 229.802 178.645 229.089 177.375 227.819C176.105 226.549 175.392 224.827 175.392 223.031C175.392 221.235 176.105 219.513 177.375 218.244C178.645 216.974 180.367 216.26 182.162 216.26H249.871C251.667 216.26 253.389 216.974 254.658 218.244C255.928 219.513 256.642 221.235 256.642 223.031C256.642 224.827 255.928 226.549 254.658 227.819C253.389 229.089 251.667 229.802 249.871 229.802H182.162Z" fill="white"/>
</svg>
